# xmcd
#
# Track frame offsets: 
#        150
#        18458
#        35150
#        54556
#        74572
#        95609
#        122460
#        145142
#        170076
#        193626
#        217874
#        236871
#        257324
#
# Disc length: 3748 seconds
#
# Revision: 0
# Processed by: cddbd v1.5.2PL0 Copyright (c) Steve Scherf et al.
# Submitted via: ExactAudioCopy v0.90b4
#
DISCID=bd0ea20d
DTITLE=Donald Ray Johnson - Pure Pleasure
DYEAR=2002
DGENRE=Blues
TTITLE0=Slow Down Baby
TTITLE1=Rocking In The Same Old Boat
TTITLE2=Here To Stay
TTITLE3=Song For Perry (Walk Around Heaven All Day)
TTITLE4=Gone So Long
TTITLE5=Thrilling You Killing Me
TTITLE6=Don't Let The Green Grass Fool Ya
TTITLE7=No Guitar Blues
TTITLE8=It Ain't Easy Being Blue
TTITLE9=Names
TTITLE10=Hey Girl
TTITLE11=What A Wonderful World
TTITLE12=To Young To Know
EXTD=
EXTT0=
EXTT1=
EXTT2=
EXTT3=
EXTT4=
EXTT5=
EXTT6=
EXTT7=
EXTT8=
EXTT9=
EXTT10=
EXTT11=
EXTT12=
PLAYORDER=
